<svg xmlns="http://www.w3.org/2000/svg" viewBox="0 0 1200 260" width="1200" height="260" role="img" aria-label="Footer: two AI agents playing pong in a research lab."><defs>
<linearGradient id="bg" x1="0" y1="0" x2="1" y2="1"><stop offset="0" stop-color="#0a0d14"/><stop offset="1" stop-color="#121624"/></linearGradient>
<linearGradient id="gold" x1="0" y1="0" x2="1" y2="0"><stop offset="0" stop-color="#e6cb8f"/><stop offset="1" stop-color="#9b7f3e"/></linearGradient>
<radialGradient id="vio" cx=".5" cy=".5" r=".5"><stop offset="0" stop-color="#6d5cff" stop-opacity=".22"/><stop offset="1" stop-color="#6d5cff" stop-opacity="0"/></radialGradient>
<radialGradient id="amb" cx=".5" cy=".5" r=".5"><stop offset="0" stop-color="#d4b36a" stop-opacity=".18"/><stop offset="1" stop-color="#d4b36a" stop-opacity="0"/></radialGradient>
<linearGradient id="sweep" x1="0" y1="0" x2="1" y2="0"><stop offset="0" stop-color="#fff" stop-opacity="0"/><stop offset=".5" stop-color="#fff" stop-opacity=".055"/><stop offset="1" stop-color="#fff" stop-opacity="0"/></linearGradient>
<pattern id="grid" width="40" height="40" patternUnits="userSpaceOnUse"><path d="M40 0H0V40" fill="none" stroke="#fff" stroke-opacity=".03"/></pattern>

<radialGradient id="ballglow" cx=".5" cy=".5" r=".5"><stop offset="0" stop-color="#7ef0c1" stop-opacity=".6"/><stop offset="1" stop-color="#7ef0c1" stop-opacity="0"/></radialGradient>
<clipPath id="frame"><rect width="1200" height="260" rx="20"/></clipPath>
</defs>
<g clip-path="url(#frame)">
<rect width="1200" height="260" fill="url(#bg)"/>
<rect width="1200" height="260" fill="url(#grid)"/>
<circle cx="600" cy="130" r="320" fill="url(#vio)"/>
</g>
<rect x=".5" y=".5" width="1199" height="259" rx="20" fill="none" stroke="#fff" stroke-opacity=".08"/>
<g font-family="Consolas,Menlo,'Courier New',monospace" font-size="12" letter-spacing="3">
<text x="40" y="34" fill="#d4b36a">// RESEARCH LAB · AGENT VS AGENT</text>
<text x="1160" y="34" text-anchor="end" fill="#7d8496">EXPERIMENT #∞ <tspan fill="#5fd38d">● RUNNING</tspan></text>
<text x="600" y="34" text-anchor="middle" fill="#f3efe6">PROPOSER  ∞ : ∞  CRITIC</text>
</g>
<rect x="100" y="46" width="1000" height="168" rx="10" fill="none" stroke="#fff" stroke-opacity=".08"/>
<line x1="600" y1="50" x2="600" y2="210" stroke="#d4b36a" stroke-opacity=".35" stroke-dasharray="6 8"/>
<circle r="22" fill="url(#ballglow)"><animate attributeName="cx" values="140;1060;140;1060;140;1060;140" keyTimes="0.0000;0.1667;0.3333;0.5000;0.6667;0.8333;1.0000" dur="9s" repeatCount="indefinite"/><animate attributeName="cy" values="90;170;120;70;160;110;90" keyTimes="0.0000;0.1667;0.3333;0.5000;0.6667;0.8333;1.0000" dur="9s" repeatCount="indefinite"/></circle>
<circle r="7" fill="#7ef0c1"><animate attributeName="cx" values="140;1060;140;1060;140;1060;140" keyTimes="0.0000;0.1667;0.3333;0.5000;0.6667;0.8333;1.0000" dur="9s" repeatCount="indefinite"/><animate attributeName="cy" values="90;170;120;70;160;110;90" keyTimes="0.0000;0.1667;0.3333;0.5000;0.6667;0.8333;1.0000" dur="9s" repeatCount="indefinite"/></circle>
<g><animateTransform attributeName="transform" type="translate" values="122 90;122 105;122 120;122 140;122 160;122 125;122 90" keyTimes="0.0000;0.1667;0.3333;0.5000;0.6667;0.8333;1.0000" dur="9s" repeatCount="indefinite"/>
<line x1="0" y1="-34" x2="0" y2="-44" stroke="#d4b36a" stroke-width="2"/><circle cx="0" cy="-46" r="4" fill="#e6cb8f"><animate attributeName="opacity" values="1;.3;1" dur="1.2s" repeatCount="indefinite"/></circle>
<rect x="-22" y="-34" width="44" height="68" rx="14" fill="#2a3150" stroke="#d4b36a" stroke-width="2"/>
<rect x="-15" y="-24" width="30" height="22" rx="7" fill="#0a0d14"/>
<g fill="#7ef0c1"><circle cx="-4" cy="-13" r="3.5"/><circle cx="8" cy="-13" r="3.5"/></g>
<rect x="-10" y="8" width="20" height="4" rx="2" fill="#6d5cff"/><rect x="-10" y="16" width="14" height="4" rx="2" fill="#d4b36a" opacity=".6"/>
</g>
<g><animateTransform attributeName="transform" type="translate" values="1078 140;1078 170;1078 120;1078 70;1078 90;1078 110;1078 140" keyTimes="0.0000;0.1667;0.3333;0.5000;0.6667;0.8333;1.0000" dur="9s" repeatCount="indefinite"/>
<line x1="0" y1="-34" x2="0" y2="-44" stroke="#d4b36a" stroke-width="2"/><circle cx="0" cy="-46" r="4" fill="#e6cb8f"><animate attributeName="opacity" values="1;.3;1" dur="1.2s" repeatCount="indefinite"/></circle>
<rect x="-22" y="-34" width="44" height="68" rx="14" fill="#2a3150" stroke="#d4b36a" stroke-width="2"/>
<rect x="-15" y="-24" width="30" height="22" rx="7" fill="#0a0d14"/>
<g fill="#7ef0c1"><circle cx="-8" cy="-13" r="3.5"/><circle cx="4" cy="-13" r="3.5"/></g>
<rect x="-10" y="8" width="20" height="4" rx="2" fill="#6d5cff"/><rect x="-10" y="16" width="14" height="4" rx="2" fill="#d4b36a" opacity=".6"/>
</g>
<text x="600" y="242" text-anchor="middle" font-family="Georgia,'Times New Roman',serif" font-size="15" font-style="italic" fill="#9aa1b2">Two agents, one truth. Built by Yash Raj<tspan fill="#d4b36a">.</tspan></text>
</svg>
